<?xml version="1.0" standalone="no"?>
<!DOCTYPE svg PUBLIC "-//W3C//DTD SVG 20010904//EN"
 "http://www.w3.org/TR/2001/REC-SVG-20010904/DTD/svg10.dtd">
<svg version="1.0" xmlns="http://www.w3.org/2000/svg"
 width="2381.000000pt" height="2381.000000pt" viewBox="0 0 2381.000000 2381.000000"
 preserveAspectRatio="xMidYMid meet">
<metadata>
Created by potrace 1.11, written by Peter Selinger 2001-2013
</metadata>
<g transform="translate(0.000000,2381.000000) scale(0.100000,-0.100000)"
fill="#000000" stroke="none">
<path d="M11438 23575 c-2 -2 -66 -6 -143 -10 -77 -3 -160 -8 -185 -10 -114
-9 -218 -18 -245 -21 -16 -1 -66 -5 -110 -9 -44 -3 -87 -8 -95 -10 -8 -2 -44
-7 -80 -10 -36 -3 -110 -12 -165 -20 -55 -8 -127 -17 -160 -21 -33 -3 -62 -7
-65 -9 -3 -2 -29 -6 -59 -10 -30 -4 -63 -9 -75 -11 -12 -2 -37 -7 -56 -10
-147 -22 -619 -117 -790 -159 -1467 -354 -2885 -1007 -4077 -1877 -256 -186
-703 -538 -733 -577 -3 -3 -21 -19 -40 -35 -218 -179 -688 -631 -940 -905 -58
-63 -112 -122 -120 -130 -8 -9 -44 -50 -80 -91 -36 -41 -67 -77 -70 -80 -7 -6
-109 -127 -135 -159 -11 -14 -34 -41 -51 -60 -38 -45 -180 -223 -219 -276 -16
-22 -35 -47 -42 -55 -7 -8 -61 -80 -120 -160 -424 -568 -852 -1281 -1147
-1910 -32 -69 -74 -156 -92 -195 -18 -38 -60 -135 -94 -215 -34 -80 -65 -154
-70 -165 -26 -57 -121 -303 -185 -480 -232 -643 -400 -1273 -516 -1935 -17
-96 -32 -186 -34 -200 -2 -14 -6 -38 -9 -55 -2 -16 -10 -66 -16 -110 -6 -44
-13 -91 -15 -105 -5 -29 -13 -94 -20 -160 -3 -25 -7 -63 -10 -85 -10 -88 -22
-203 -29 -285 -14 -159 -18 -210 -21 -265 -27 -419 -28 -1247 -1 -1575 3 -25
7 -90 11 -145 4 -55 8 -113 10 -130 2 -16 6 -59 10 -95 20 -202 24 -242 35
-315 5 -33 12 -85 16 -115 3 -30 8 -64 9 -75 2 -11 9 -56 15 -100 6 -44 13
-91 16 -105 2 -14 11 -63 19 -110 16 -96 42 -242 50 -280 3 -14 7 -37 10 -53
3 -15 12 -60 21 -100 8 -39 18 -83 20 -96 13 -65 78 -338 101 -421 14 -52 30
-113 35 -135 5 -22 18 -71 29 -109 12 -38 22 -76 24 -85 16 -77 194 -616 270
-820 88 -237 213 -541 286 -699 22 -46 39 -85 39 -87 0 -20 270 -562 377 -755
44 -80 95 -172 113 -205 18 -33 39 -67 46 -76 8 -8 14 -19 14 -22 0 -19 296
-487 447 -707 255 -373 653 -881 899 -1150 18 -19 42 -46 54 -60 72 -84 222
-241 405 -424 264 -264 337 -333 605 -570 240 -212 676 -555 950 -746 66 -46
425 -285 476 -317 607 -379 1237 -703 1824 -937 80 -32 154 -62 165 -67 26
-11 152 -59 185 -69 14 -5 50 -18 80 -30 281 -107 788 -259 1205 -360 302 -74
837 -176 1070 -205 28 -4 61 -8 75 -10 26 -4 245 -31 335 -41 28 -3 61 -7 75
-9 14 -2 61 -6 105 -10 44 -3 103 -8 130 -11 28 -2 90 -6 140 -9 49 -3 124 -7
165 -10 306 -23 1090 -17 1395 10 22 2 81 6 130 10 88 6 142 11 238 20 108 11
154 16 187 20 19 3 55 7 80 10 25 3 61 7 80 10 19 3 52 7 74 10 120 14 403 60
561 90 142 27 136 26 250 50 44 9 91 19 105 21 118 21 757 189 868 228 23 9
43 15 45 15 1 0 9 2 17 4 218 70 328 106 458 153 86 31 180 65 207 74 232 82
693 284 1030 451 303 150 367 184 635 336 300 171 768 473 1010 651 41 31 95
70 120 88 25 19 50 37 55 41 6 5 80 62 165 128 85 66 166 129 180 141 14 12
84 71 156 130 162 135 306 262 474 419 98 92 479 473 560 561 71 76 210 231
241 268 13 16 31 36 40 45 46 47 223 263 454 556 26 33 201 271 225 305 8 12
29 41 46 64 30 39 283 419 353 528 65 103 260 436 346 593 85 154 299 576 345
680 12 28 34 75 47 105 47 104 123 276 128 290 1 3 6 16 12 30 6 14 38 95 72
180 34 85 66 163 71 172 6 10 10 23 10 29 0 6 6 25 14 42 52 119 274 797 312
956 2 9 24 95 49 191 68 259 144 605 185 835 5 33 12 71 15 85 3 14 12 68 21
120 15 95 17 107 29 190 12 82 14 95 20 140 5 43 12 97 20 150 2 14 7 57 11
95 4 39 8 84 10 100 2 17 6 59 9 95 3 36 8 76 10 90 2 14 7 75 10 135 4 61 8
123 10 139 13 103 20 392 20 791 -1 454 -7 659 -30 905 -2 30 -7 87 -10 125
-3 39 -8 86 -10 105 -2 19 -7 65 -10 102 -3 37 -7 75 -9 85 -2 10 -7 50 -10
88 -7 65 -17 142 -31 240 -7 48 -34 220 -40 255 -22 137 -39 232 -56 320 -11
58 -23 116 -25 130 -3 14 -11 53 -19 88 -8 34 -17 77 -20 95 -3 17 -15 66 -25
107 -10 41 -21 86 -24 100 -46 232 -250 910 -377 1255 -193 520 -430 1056
-637 1440 -15 28 -51 95 -81 150 -75 141 -277 486 -376 642 -156 249 -422 633
-542 788 -5 6 -62 80 -127 165 -66 85 -122 157 -126 160 -3 3 -35 41 -70 85
-36 44 -75 91 -86 105 -12 14 -55 63 -95 110 -72 85 -178 203 -299 334 -86 93
-465 473 -560 561 -42 39 -116 106 -165 150 -49 44 -96 87 -105 95 -83 77
-375 318 -545 449 -93 72 -174 135 -180 139 -53 42 -362 259 -480 338 -535
359 -1151 701 -1710 949 -82 36 -159 70 -170 75 -11 5 -49 21 -85 36 -36 14
-83 34 -105 44 -163 72 -715 269 -980 348 -190 57 -466 135 -521 147 -10 2
-86 20 -169 40 -82 20 -161 39 -175 41 -14 3 -52 11 -85 19 -57 14 -367 74
-410 80 -11 1 -74 12 -140 23 -66 11 -156 26 -200 31 -44 6 -91 13 -105 16
-14 2 -45 6 -70 9 -25 3 -70 8 -100 11 -30 4 -66 8 -80 11 -14 2 -54 6 -90 9
-36 3 -81 8 -100 11 -19 3 -64 7 -100 9 -36 3 -87 7 -115 10 -27 2 -97 7 -155
11 -58 4 -130 9 -160 11 -66 5 -1067 13 -1072 8z m1037 -2379 c28 -3 93 -8
145 -11 201 -13 505 -45 664 -71 17 -2 45 -6 61 -8 17 -2 57 -9 90 -15 33 -6
78 -13 100 -17 22 -3 85 -14 140 -24 55 -11 114 -22 130 -25 17 -2 39 -7 50
-10 11 -2 52 -11 90 -20 39 -8 79 -17 90 -20 11 -3 34 -8 50 -11 17 -4 82 -20
145 -36 63 -17 126 -32 139 -35 14 -2 28 -6 33 -9 4 -3 18 -7 30 -9 102 -20
704 -218 853 -280 17 -7 62 -25 100 -40 259 -100 747 -326 960 -445 17 -9 57
-32 90 -50 218 -119 654 -386 702 -429 7 -6 16 -11 22 -11 5 0 11 -3 13 -7 2
-5 39 -32 83 -62 76 -52 424 -308 435 -320 3 -3 39 -33 80 -66 41 -32 80 -64
86 -70 7 -5 20 -17 30 -25 29 -23 137 -114 150 -125 6 -5 44 -39 84 -75 276
-244 644 -617 850 -860 30 -36 60 -69 66 -75 6 -5 40 -46 75 -90 35 -44 66
-82 69 -85 3 -3 37 -45 76 -95 317 -404 623 -867 847 -1285 22 -41 43 -79 48
-85 4 -5 50 -95 102 -200 147 -294 289 -618 381 -870 20 -55 41 -109 46 -120
12 -25 130 -383 160 -485 12 -41 28 -95 36 -120 53 -176 155 -608 194 -825 5
-27 11 -61 14 -75 3 -14 14 -83 26 -155 19 -117 23 -150 35 -235 2 -14 6 -43
9 -65 3 -22 8 -65 11 -95 3 -30 7 -71 10 -90 7 -58 15 -131 20 -205 3 -39 7
-88 10 -110 26 -255 26 -1053 -1 -1365 -11 -137 -33 -358 -39 -405 -2 -16 -9
-70 -15 -120 -6 -49 -13 -97 -15 -105 -2 -8 -7 -39 -10 -69 -4 -30 -9 -63 -11
-75 -2 -12 -9 -48 -14 -81 -5 -33 -12 -70 -14 -81 -2 -12 -7 -37 -10 -55 -34
-217 -150 -700 -232 -969 -47 -153 -116 -363 -144 -440 -16 -41 -44 -118 -64
-170 -138 -373 -374 -882 -570 -1229 -42 -73 -76 -135 -76 -137 0 -1 -51 -85
-114 -186 -165 -268 -409 -625 -553 -808 -39 -50 -288 -357 -297 -366 -6 -6
-33 -37 -61 -69 -270 -316 -673 -714 -1025 -1011 -52 -44 -129 -107 -170 -139
-41 -32 -77 -62 -80 -65 -8 -9 -301 -226 -416 -307 -321 -227 -787 -506 -1124
-674 -493 -245 -905 -413 -1380 -563 -255 -80 -592 -172 -735 -200 -11 -3 -63
-14 -115 -26 -93 -21 -365 -73 -445 -85 -22 -3 -96 -14 -165 -25 -69 -10 -152
-22 -185 -25 -33 -4 -71 -8 -85 -10 -71 -10 -146 -18 -295 -30 -38 -3 -88 -8
-110 -10 -256 -26 -1147 -26 -1355 0 -14 2 -70 6 -125 10 -55 4 -107 9 -115
10 -8 2 -44 6 -80 9 -113 12 -286 34 -400 51 -106 16 -292 48 -325 55 -22 5
-53 11 -70 14 -16 3 -40 8 -51 10 -12 2 -39 7 -60 10 -22 4 -47 9 -56 12 -9 3
-25 6 -35 8 -10 2 -58 14 -108 26 -85 20 -102 24 -150 34 -248 53 -952 281
-1210 391 -16 7 -66 28 -110 45 -44 18 -84 37 -89 41 -6 5 -15 9 -22 9 -6 0
-60 23 -118 50 -58 28 -109 50 -112 50 -7 0 -405 199 -480 240 -108 59 -345
195 -372 212 -15 10 -34 21 -42 25 -29 13 -267 167 -420 271 -170 115 -326
228 -465 337 -49 38 -94 73 -100 77 -27 20 -366 307 -404 342 -25 23 -79 72
-120 110 -104 95 -480 474 -568 572 -385 430 -705 854 -1012 1342 -39 63 -71
115 -71 117 0 1 -25 44 -55 95 -125 207 -289 522 -426 818 -22 46 -39 85 -39
87 0 3 -12 30 -26 62 -43 95 -51 114 -87 203 -97 237 -202 535 -277 780 -17
58 -34 114 -38 125 -3 11 -7 25 -8 30 -1 6 -10 37 -19 70 -40 144 -97 372
-116 462 -11 54 -22 105 -24 113 -16 75 -44 215 -50 255 -1 11 -10 61 -18 110
-9 50 -19 110 -22 135 -3 25 -8 56 -10 70 -3 14 -7 45 -10 70 -3 25 -10 74
-15 110 -5 36 -12 99 -15 140 -4 41 -8 86 -11 100 -2 14 -6 57 -9 95 -4 39 -8
93 -10 120 -27 316 -27 1124 0 1380 2 22 7 76 10 120 11 123 12 136 19 200 11
102 47 369 51 385 2 8 6 33 9 55 4 35 37 223 51 295 2 14 7 39 11 55 24 126
91 420 116 510 16 61 31 118 33 128 23 110 192 624 288 872 175 456 443 1012
647 1345 5 8 33 56 61 105 29 50 57 95 62 100 4 6 50 75 101 155 51 80 119
183 152 230 33 47 78 110 99 140 78 111 364 478 444 570 12 14 46 52 74 85
230 266 628 668 867 876 453 394 882 710 1315 971 44 27 87 52 95 58 175 110
656 361 907 474 544 244 1075 426 1643 565 165 40 458 101 580 121 36 5 76 12
90 14 114 21 167 29 275 42 22 2 58 7 80 11 22 3 51 7 65 8 68 7 168 17 195
21 17 2 71 6 120 10 50 3 106 8 125 10 19 1 103 6 185 10 83 3 151 8 153 9 6
5 793 -4 847 -9z"/>
<path d="M10658 19095 c-2 -2 -59 -6 -128 -10 -69 -3 -138 -8 -155 -10 -16 -2
-57 -7 -90 -10 -118 -12 -151 -16 -240 -30 -49 -7 -108 -16 -130 -19 -22 -4
-51 -8 -65 -11 -43 -9 -74 -15 -105 -21 -16 -3 -58 -11 -91 -19 -34 -8 -73
-16 -85 -19 -26 -4 -184 -46 -289 -76 -800 -226 -1603 -674 -2286 -1275 -832
-732 -1594 -1789 -2066 -2865 -32 -74 -63 -144 -68 -155 -5 -11 -19 -45 -31
-75 -11 -30 -25 -64 -29 -76 -6 -15 1 -41 29 -95 158 -318 427 -510 764 -547
118 -12 410 -6 507 12 31 6 105 14 190 22 36 3 75 7 86 9 94 14 280 191 538
510 31 39 64 78 72 88 82 99 506 681 606 831 35 52 195 217 316 324 253 226
571 458 882 644 283 169 368 216 630 343 96 47 183 90 192 95 88 49 472 176
623 206 116 23 177 34 215 40 25 3 53 8 64 10 19 3 89 12 161 19 233 23 633
24 865 1 108 -10 173 -18 240 -27 41 -6 84 -12 95 -14 44 -5 116 -18 235 -41
69 -14 136 -27 150 -30 14 -3 86 -20 160 -39 269 -68 310 -83 710 -268 41 -19
131 -60 200 -92 69 -31 130 -60 135 -65 15 -11 104 -59 260 -140 175 -90 409
-216 455 -245 19 -12 55 -29 80 -39 47 -18 209 -56 242 -56 11 0 38 -9 60 -20
36 -17 44 -18 57 -6 12 10 52 15 151 17 398 9 739 132 949 341 164 164 244
365 242 615 -1 172 -27 306 -103 527 -65 194 -55 181 -234 284 -88 49 -175 99
-194 110 -19 12 -55 32 -80 45 -25 13 -81 43 -125 67 -166 89 -546 279 -690
344 -82 38 -172 78 -200 91 -68 31 -125 55 -220 95 -44 18 -93 39 -110 46 -74
31 -291 114 -300 114 -5 0 -23 7 -38 15 -24 12 -436 155 -462 159 -5 1 -48 14
-95 29 -358 111 -929 240 -1205 272 -27 3 -63 8 -80 10 -40 7 -104 15 -240 30
-22 3 -83 7 -135 11 -52 3 -111 8 -130 10 -39 5 -657 13 -662 9z"/>
<path d="M5060 11369 c-64 -8 -166 -24 -225 -34 -58 -11 -230 -67 -280 -92
-178 -91 -245 -210 -195 -348 25 -70 24 -63 16 -140 -18 -172 -25 -267 -31
-405 -6 -137 -6 -522 0 -635 11 -202 20 -332 30 -410 3 -22 8 -67 11 -99 3
-33 7 -68 10 -79 2 -11 6 -45 10 -76 8 -80 71 -420 95 -521 11 -47 22 -94 25
-106 8 -41 84 -302 117 -404 269 -819 732 -1501 1344 -1976 91 -71 253 -185
328 -231 216 -132 453 -251 655 -329 36 -14 74 -30 85 -35 11 -5 95 -34 187
-64 210 -69 533 -150 713 -179 17 -3 71 -12 120 -20 50 -8 108 -18 130 -20 22
-3 76 -10 120 -15 44 -6 114 -13 155 -16 41 -3 91 -8 110 -10 54 -6 281 -18
315 -16 42 2 127 61 216 150 166 167 252 344 295 610 16 98 7 298 -20 441 -45
233 -174 544 -344 823 -120 197 -111 187 -162 188 -80 2 -270 15 -345 24 -16
3 -55 7 -85 11 -103 11 -304 45 -394 65 -50 11 -101 22 -112 25 -142 29 -376
119 -488 187 -166 102 -245 200 -271 339 -2 9 -28 52 -58 95 -53 76 -210 310
-234 349 -119 188 -226 364 -283 464 -151 262 -331 628 -409 835 -13 33 -29
74 -36 90 -23 52 -82 257 -103 356 -40 184 -46 337 -18 474 9 46 49 136 76
173 108 150 106 272 -8 372 -96 85 -261 143 -512 181 -91 14 -459 19 -550 8z"/>
</g>
</svg>
